<svg xmlns="http://www.w3.org/2000/svg" aria-hidden="true" style="position:absolute;width:0;height:0;overflow:hidden">
  <defs>
    <symbol id="icon-Hand-down" viewBox="0 0 30 32">
      <path d="M9.395 31.082c.278.231.627.357.988.357h16.424a3.087 3.087 0 0 0 3.087-3.087V17.221a3.088 3.088 0 0 0-2.746-3.067L16 12.914V3.651a3.087 3.087 0 1 0-6.174 0v18.526l-4.678-1.871a3.078 3.078 0 0 0-3.45.81 3.082 3.082 0 0 0-.627 1.081l-.174.525a1.538 1.538 0 0 0 .477 1.674l8.023 6.688z"/>
    </symbol>
  </defs>
</svg>
